<svg id="Layer_1" data-name="Layer 1" xmlns="http://www.w3.org/2000/svg" viewBox="0 0 584 456"><defs><style>.cls-1{fill:#0dcaf0;}.cls-2,.cls-3{fill:none;stroke-miterlimit:10;}.cls-2{stroke:#0dcaf0;stroke-width:2px;}.cls-3{stroke:#f60;stroke-width:4px;}.cls-4{font-size:20px;fill:#fff;font-family:Georgia-BoldItalic, Georgia;font-weight:700;font-style:italic;}</style></defs><rect width="584" height="456"/><path class="cls-1" d="M774.65,292c-6.34-.32-13.5,6.14-12.47,14.62l16.19,130.3q3.63-65.55,7.25-131.1C786.25,298.23,780.41,292.3,774.65,292Zm-1,28.74c-2.49.09-4.68-5-4.9-11.38s1.62-11.61,4.11-11.7,4.68,5,4.89,11.39S776.14,320.67,773.66,320.75Z" transform="translate(-447 -157)"/><path class="cls-2" d="M796.27,309.16c-29.18-8.14-59.43-.3-78.29,20.27-2.23,2.44-25.77,29-17.21,60.47,8,29.24,40.07,50.52,77.2,47.34,0,.12,36-53.45,36-53.45l36,51.25q2.27-48.43,4.51-96.88" transform="translate(-447 -157)"/><path class="cls-1" d="M703.28,399.14l-1,2.42q-1.1,2.55-2.24,5.12-3.59,8.1-7.19,15.63h-.26q-1.5-8.24-3.26-17.26t-3.63-18.17q-1.89-9.12-3.81-18t-3.74-17q-1.82-8-3.47-14.95T671.69,325a6.1,6.1,0,0,0-2-.31,5.22,5.22,0,0,0-2.06.41,1.92,1.92,0,0,0-1.2,1.3q-2.2,7.68-4.7,15.86t-5.13,16.52q-2.67,8.37-5.42,16.74T645.65,392q-2.76,8.07-5.45,15.7T635,422.16h-.35q-3.1-16.86-6-30.66t-5.32-24.68q-2.46-10.89-4.49-18.89t-3.49-13.22c-.66-2.44-1.3-4.52-1.9-6.22a15.57,15.57,0,0,0-2.11-4.17,7.08,7.08,0,0,0-2.93-2.33,11.56,11.56,0,0,0-4.4-.72,45.35,45.35,0,0,0-8.5,1q-5.14,1-12.92,2.94l.56,4.46c1.6-.27,3.06-.47,4.38-.63a35,35,0,0,1,3.64-.22,15.24,15.24,0,0,1,4.39.55,8.5,8.5,0,0,1,3.19,1.76,11,11,0,0,1,2.35,3.09,29.6,29.6,0,0,1,1.91,4.58q3.36,9.94,9.06,34.9t13.62,65l1,.16,8.63-.71q3.32-8.93,6.25-16.81t5.54-15q2.61-7.17,5-13.87t4.51-13.29q2.16-6.6,4.22-13.35t4.06-14h.35c1.08,4.31,2.09,8.82,3.07,13.52s2.07,9.82,3.31,15.38q1.29,6,2.68,12.34t2.81,13.45q1.43,7.07,2.86,15t2.88,17.21l1.06.16,8.52-.71q3.91-8.07,7.76-16.38,3.35-7.27,6.56-14.45c.31-.68.61-1.37.91-2.06,0-.07.07-.15.11-.22Q705.38,402.17,703.28,399.14Z" transform="translate(-447 -157)"/><circle class="cls-3" cx="279.5" cy="215.5" r="170.5"/><text class="cls-4" transform="translate(175.68 321.61)">Wango Classic Wear</text></svg>